{
  "accessors": [
    {
      "bufferView": 2,
      "componentType": 5126,
      "count": 27823,
      "max": [
        0.3713699281215668,
        1.8246722221374512,
        0.2016202062368393
      ],
      "min": [
        -0.3713699281215668,
        -0.006360979750752449,
        -0.10704174637794495
      ],
      "type": "VEC3"
    },
    {
      "bufferView": 2,
      "byteOffset": 333876,
      "componentType": 5126,
      "count": 27823,
      "max": [
        0.9999805688858032,
        0.9997872114181519,
        1.0
      ],
      "min": [
        -0.9999806880950928,
        -1.0,
        -0.9999998211860657
      ],
      "type": "VEC3"
    },
    {
      "bufferView": 3,
      "componentType": 5126,
      "count": 27823,
      "max": [
        1.0,
        0.9999998211860657,
        0.9999944567680359,
        1.0
      ],
      "min": [
        -1.0,
        -0.9999251365661621,
        -0.9999545216560364,
        -1.0
      ],
      "type": "VEC4"
    },
    {
      "bufferView": 1,
      "componentType": 5126,
      "count": 27823,
      "max": [
        1.9977610111236572,
        0.9980000257492065
      ],
      "min": [
        0.0020000000949949026,
        0.0020000000949949026
      ],
      "type": "VEC2"
    },
    {
      "bufferView": 0,
      "componentType": 5125,
      "count": 128271,
      "type": "SCALAR"
    }
  ],
  "asset": {
    "extras": {
      "author": "soidev (https://sketchfab.com/soidev)",
      "license": "CC-BY-4.0 (http://creativecommons.org/licenses/by/4.0/)",
      "source": "https://sketchfab.com/3d-models/skeleton-b8e05af2837d483190d196928b2bd9dc",
      "title": "Skeleton"
    },
    "generator": "Sketchfab-12.64.0",
    "version": "2.0"
  },
  "bufferViews": [
    {
      "buffer": 0,
      "byteLength": 513084,
      "name": "floatBufferViews",
      "target": 34963
    },
    {
      "buffer": 0,
      "byteLength": 222584,
      "byteOffset": 513084,
      "byteStride": 8,
      "name": "floatBufferViews",
      "target": 34962
    },
    {
      "buffer": 0,
      "byteLength": 667752,
      "byteOffset": 735668,
      "byteStride": 12,
      "name": "floatBufferViews",
      "target": 34962
    },
    {
      "buffer": 0,
      "byteLength": 445168,
      "byteOffset": 1403420,
      "byteStride": 16,
      "name": "floatBufferViews",
      "target": 34962
    }
  ],
  "buffers": [
    {
      "byteLength": 1848588,
      "uri": "scene.bin"
    }
  ],
  "images": [
    {
      "uri": "textures/Skeleton_baseColor.png"
    },
    {
      "uri": "textures/Skeleton_metallicRoughness.png"
    },
    {
      "uri": "textures/Skeleton_normal.png"
    }
  ],
  "materials": [
    {
      "doubleSided": true,
      "name": "Skeleton",
      "normalTexture": {
        "index": 2
      },
      "occlusionTexture": {
        "index": 1
      },
      "pbrMetallicRoughness": {
        "baseColorTexture": {
          "index": 0
        },
        "metallicFactor": 0.0,
        "metallicRoughnessTexture": {
          "index": 1
        }
      }
    }
  ],
  "meshes": [
    {
      "name": "Back_low_B.001_Skeleton_0",
      "primitives": [
        {
          "attributes": {
            "NORMAL": 1,
            "POSITION": 0,
            "TANGENT": 2,
            "TEXCOORD_0": 3
          },
          "indices": 4,
          "material": 0,
          "mode": 4
        }
      ]
    }
  ],
  "nodes": [
    {
      "children": [
        1
      ],
      "matrix": [
        1.0,
        0.0,
        0.0,
        0.0,
        0.0,
        2.220446049250313e-16,
        -1.0,
        0.0,
        0.0,
        1.0,
        2.220446049250313e-16,
        0.0,
        0.0,
        0.0,
        0.0,
        1.0
      ],
      "name": "Sketchfab_model"
    },
    {
      "children": [
        2
      ],
      "matrix": [
        1.0,
        0.0,
        0.0,
        0.0,
        0.0,
        0.0,
        1.0,
        0.0,
        0.0,
        -1.0,
        0.0,
        0.0,
        0.0,
        0.0,
        0.0,
        1.0
      ],
      "name": "Skeleton.fbx"
    },
    {
      "children": [
        3
      ],
      "name": "RootNode"
    },
    {
      "children": [
        4
      ],
      "matrix": [
        100.0,
        0.0,
        0.0,
        0.0,
        0.0,
        99.99999999999866,
        1.6292067073209114e-05,
        0.0,
        0.0,
        -1.6292067073209114e-05,
        99.99999999999866,
        0.0,
        0.0,
        0.0,
        0.0,
        1.0
      ],
      "name": "Back_low_B.001"
    },
    {
      "mesh": 0,
      "name": "Back_low_B.001_Skeleton_0"
    }
  ],
  "samplers": [
    {
      "magFilter": 9729,
      "minFilter": 9987,
      "wrapS": 10497,
      "wrapT": 10497
    }
  ],
  "scene": 0,
  "scenes": [
    {
      "name": "Sketchfab_Scene",
      "nodes": [
        0
      ]
    }
  ],
  "textures": [
    {
      "sampler": 0,
      "source": 0
    },
    {
      "sampler": 0,
      "source": 1
    },
    {
      "sampler": 0,
      "source": 2
    }
  ]
}
